<svg id="_x31__x2C_5" height="512" viewBox="0 0 24 24" width="512" xmlns="http://www.w3.org/2000/svg"><path d="m23.23 16.05-3-14.5c-.09-.46-.5-.8-.98-.8h-10.5c-.48 0-.89.34-.98.8l-3 14.5c-.01.07-.02.13-.02.2 0 .55.45 1 1 1h16.5c.55 0 1-.45 1-1 0-.07-.01-.13-.02-.2z" fill="#90a4ae"/><path d="m19.23 16.05-3-14.5c-.09-.46-.5-.8-.98-.8h-10.5c-.48 0-.89.34-.98.8l-3 14.5c-.01.07-.02.13-.02.2 0 .55.45 1 1 1h16.5c.55 0 1-.45 1-1 0-.07-.01-.13-.02-.2z" fill="#cfd8dc"/><path d="m17.25 24h-.5c-.965 0-1.75-.785-1.75-1.75v-3.5c0-.965.785-1.75 1.75-1.75h.5c.965 0 1.75.785 1.75 1.75v3.5c0 .965-.785 1.75-1.75 1.75zm-.5-5.5c-.138 0-.25.112-.25.25v3.5c0 .138.112.25.25.25h.5c.138 0 .25-.112.25-.25v-3.5c0-.138-.112-.25-.25-.25z"/><path d="m20.75 24c-.104 0-.21-.021-.311-.067-.377-.171-.544-.616-.372-.993l2.5-5.5c.172-.378.62-.543.993-.372.377.171.544.616.372.993l-2.5 5.5c-.125.276-.398.439-.682.439z"/><path d="m20.75 18.5c-.414 0-.75-.336-.75-.75s.336-.75.75-.75.75.336.75.75-.336.75-.75.75z"/><path d="m11.75 24h-1c-.414 0-.75-.336-.75-.75s.336-.75.75-.75h1c.413 0 .75-.337.75-.75s-.337-.75-.75-.75h-1c-.414 0-.75-.336-.75-.75v-2.5c0-.414.336-.75.75-.75h2.5c.414 0 .75.336.75.75s-.336.75-.75.75h-1.75v1h.25c1.24 0 2.25 1.01 2.25 2.25s-1.01 2.25-2.25 2.25z"/><path d="m7.55 18h-5.8c-.965 0-1.75-.785-1.75-1.75 0-.099.01-.185.023-.28l3.012-14.573c.159-.806.881-1.397 1.715-1.397h10.5c.834 0 1.556.591 1.716 1.404l2.759 13.333c.084.406-.177.803-.582.887-.405.087-.803-.176-.887-.582l-2.76-13.34c-.023-.12-.127-.202-.246-.202h-10.5c-.119 0-.223.082-.245.195l-3.001 14.507c-.004.184.11.298.246.298h5.8c.414 0 .75.336.75.75s-.336.75-.75.75z"/><path d="m22.909 15.27c-.348 0-.66-.244-.733-.599l-2.68-12.97c-.023-.119-.127-.201-.246-.201h-4.5c-.414 0-.75-.336-.75-.75s.336-.75.75-.75h4.5c.834 0 1.556.591 1.716 1.404l2.679 12.964c.084.405-.177.802-.583.886-.051.011-.102.016-.153.016z"/><path d="m10 9c-2.206 0-4-1.794-4-4v-2.25c0-.414.336-.75.75-.75s.75.336.75.75v2.25c0 1.379 1.121 2.5 2.5 2.5s2.5-1.121 2.5-2.5v-2.25c0-.414.336-.75.75-.75s.75.336.75.75v2.25c0 2.206-1.794 4-4 4z"/><path d="m23.25 24c-.414 0-.75-.336-.75-.75s.336-.75.75-.75.75.336.75.75-.336.75-.75.75z"/></svg>